name Walk8.mot
datacolumns 19
datarows 20
range 3.95400000 3.97300000
endheader

                time	   L_ground_force_vx	   L_ground_force_vy	   L_ground_force_vz	   L_ground_force_px	   L_ground_force_py	   L_ground_force_pz	   R_ground_force_vx	   R_ground_force_vy	   R_ground_force_vz	   R_ground_force_px	   R_ground_force_py	   R_ground_force_pz	   L_ground_torque_x	   L_ground_torque_y	   L_ground_torque_z	   R_ground_torque_x	   R_ground_torque_y	   R_ground_torque_z	
          3.95400000	         10.28617093	         46.55847263	          3.96831688	          0.53503328	          0.00000000	          0.12618302	          0.00000000	          0.00000000	          0.00000000	          0.00000000	          0.00000000	          0.00000000	          0.00000000	         -1.86548998	          0.00000000	          0.00000000	          0.00000000	          0.00000000	
          3.95500000	          9.10620836	         43.45183705	          3.86466132	          0.53761123	          0.00000000	          0.12571334	          0.00000000	          0.00000000	          0.00000000	          0.00000000	          0.00000000	          0.00000000	          0.00000000	         -1.63931771	          0.00000000	          0.00000000	          0.00000000	          0.00000000	
          3.95600000	          8.01287017	         40.51396365	          3.75789696	          0.54026620	          0.00000000	          0.12625081	          0.00000000	          0.00000000	          0.00000000	          0.00000000	          0.00000000	          0.00000000	          0.00000000	         -1.42168624	          0.00000000	          0.00000000	          0.00000000	          0.00000000	
          3.95700000	          6.99334621	         37.73480318	          3.65837022	          0.54268892	          0.00000000	          0.12815666	          0.00000000	          0.00000000	          0.00000000	          0.00000000	          0.00000000	          0.00000000	          0.00000000	         -1.21338332	          0.00000000	          0.00000000	          0.00000000	          0.00000000	
          3.95800000	          6.02308228	         35.11936101	          3.55840226	          0.54460529	          0.00000000	          0.13145932	          0.00000000	          0.00000000	          0.00000000	          0.00000000	          0.00000000	          0.00000000	          0.00000000	         -1.01662467	          0.00000000	          0.00000000	          0.00000000	          0.00000000	
          3.95900000	          5.08412935	         32.60832921	          3.43635060	          0.54598492	          0.00000000	          0.13566367	          0.00000000	          0.00000000	          0.00000000	          0.00000000	          0.00000000	          0.00000000	          0.00000000	         -0.83074715	          0.00000000	          0.00000000	          0.00000000	          0.00000000	
          3.96000000	          4.18062134	         30.04610507	          3.26472209	          0.54682340	          0.00000000	          0.13992099	          0.00000000	          0.00000000	          0.00000000	          0.00000000	          0.00000000	          0.00000000	          0.00000000	         -0.65371638	          0.00000000	          0.00000000	          0.00000000	          0.00000000	
          3.96100000	          3.32941556	         27.17287421	          3.01538386	          0.54712847	          0.00000000	          0.14341277	          0.00000000	          0.00000000	          0.00000000	          0.00000000	          0.00000000	          0.00000000	          0.00000000	         -0.48571254	          0.00000000	          0.00000000	          0.00000000	          0.00000000	
          3.96200000	          2.53924656	         23.63229737	          2.66123396	          0.54715715	          0.00000000	          0.14564881	          0.00000000	          0.00000000	          0.00000000	          0.00000000	          0.00000000	          0.00000000	          0.00000000	         -0.33095217	          0.00000000	          0.00000000	          0.00000000	          0.00000000	
          3.96300000	          1.81016606	         19.14539312	          2.18508758	          0.54723840	          0.00000000	          0.14673140	          0.00000000	          0.00000000	          0.00000000	          0.00000000	          0.00000000	          0.00000000	          0.00000000	         -0.19783978	          0.00000000	          0.00000000	          0.00000000	          0.00000000	
          3.96400000	          1.15634846	         13.85716942	          1.60617381	          0.54746586	          0.00000000	          0.14723524	          0.00000000	          0.00000000	          0.00000000	          0.00000000	          0.00000000	          0.00000000	          0.00000000	         -0.09560049	          0.00000000	          0.00000000	          0.00000000	          0.00000000	
          3.96500000	          0.00000000	          0.00000000	          0.00000000	          0.00000000	          0.00000000	          0.00000000	          0.00000000	          0.00000000	          0.00000000	          0.00000000	          0.00000000	          0.00000000	          0.00000000	          0.00000000	          0.00000000	          0.00000000	          0.00000000	          0.00000000	
          3.96600000	          0.00000000	          0.00000000	          0.00000000	          0.00000000	          0.00000000	          0.00000000	          0.00000000	          0.00000000	          0.00000000	          0.00000000	          0.00000000	          0.00000000	          0.00000000	          0.00000000	          0.00000000	          0.00000000	          0.00000000	          0.00000000	
          3.96700000	          0.00000000	          0.00000000	          0.00000000	          0.00000000	          0.00000000	          0.00000000	          0.00000000	          0.00000000	          0.00000000	          0.00000000	          0.00000000	          0.00000000	          0.00000000	          0.00000000	          0.00000000	          0.00000000	          0.00000000	          0.00000000	
          3.96800000	          0.00000000	          0.00000000	          0.00000000	          0.00000000	          0.00000000	          0.00000000	          0.00000000	          0.00000000	          0.00000000	          0.00000000	          0.00000000	          0.00000000	          0.00000000	          0.00000000	          0.00000000	          0.00000000	          0.00000000	          0.00000000	
          3.96900000	          0.00000000	          0.00000000	          0.00000000	          0.00000000	          0.00000000	          0.00000000	          0.00000000	          0.00000000	          0.00000000	          0.00000000	          0.00000000	          0.00000000	          0.00000000	          0.00000000	          0.00000000	          0.00000000	          0.00000000	          0.00000000	
          3.97000000	          0.00000000	          0.00000000	          0.00000000	          0.00000000	          0.00000000	          0.00000000	          0.00000000	          0.00000000	          0.00000000	          0.00000000	          0.00000000	          0.00000000	          0.00000000	          0.00000000	          0.00000000	          0.00000000	          0.00000000	          0.00000000	
          3.97100000	          0.00000000	          0.00000000	          0.00000000	          0.00000000	          0.00000000	          0.00000000	          0.00000000	          0.00000000	          0.00000000	          0.00000000	          0.00000000	          0.00000000	          0.00000000	          0.00000000	          0.00000000	          0.00000000	          0.00000000	          0.00000000	
          3.97200000	          0.00000000	          0.00000000	          0.00000000	          0.00000000	          0.00000000	          0.00000000	          0.00000000	          0.00000000	          0.00000000	          0.00000000	          0.00000000	          0.00000000	          0.00000000	          0.00000000	          0.00000000	          0.00000000	          0.00000000	          0.00000000	
          3.97300000	          0.00000000	          0.00000000	          0.00000000	          0.00000000	          0.00000000	          0.00000000	          0.00000000	          0.00000000	          0.00000000	          0.00000000	          0.00000000	          0.00000000	          0.00000000	          0.00000000	          0.00000000	          0.00000000	          0.00000000	          0.00000000	
